<svg width="24" height="24" viewBox="0 0 24 24" fill="none" xmlns="http://www.w3.org/2000/svg">
<path d="M12.1208 18.5C15.0142 18.5 13.9825 16.6683 14.2058 16.1417C14.2025 15.7483 14.1992 15.37 14.2125 15.14C14.3958 15.1917 14.8283 15.4108 15.7217 16.2792C17.1008 17.6708 17.4533 18.5 18.5675 18.5H20.6183C21.2683 18.5 21.6067 18.2308 21.7758 18.005C21.9392 17.7867 22.0992 17.4033 21.9242 16.8067C21.4667 15.37 18.7983 12.8892 18.6325 12.6275C18.6575 12.5792 18.6975 12.515 18.7183 12.4817H18.7167C19.2433 11.7858 21.2533 8.77417 21.5492 7.56917C21.55 7.5675 21.5508 7.565 21.5508 7.5625C21.7108 7.0125 21.5642 6.65583 21.4125 6.45417C21.1842 6.1525 20.8208 6 20.33 6H18.2792C17.5925 6 17.0717 6.34583 16.8083 6.97667C16.3675 8.0975 15.1292 10.4025 14.2008 11.2183C14.1725 10.0625 14.1917 9.18 14.2067 8.52417C14.2367 7.245 14.3333 6 13.0058 6H9.7825C8.95083 6 8.155 6.90833 9.01667 7.98667C9.77 8.93167 9.2875 9.45833 9.45 12.08C8.81667 11.4008 7.69 9.56667 6.89333 7.2225C6.67 6.58833 6.33167 6.00083 5.37917 6.00083H3.32833C2.49667 6.00083 2 6.45417 2 7.21333C2 8.91833 5.77417 18.5 12.1208 18.5V18.5ZM5.37917 7.25083C5.56 7.25083 5.57833 7.25083 5.7125 7.63167C6.52833 10.0342 8.35833 13.5892 9.695 13.5892C10.6992 13.5892 10.6992 12.56 10.6992 12.1725L10.6983 9.0875C10.6433 8.06667 10.2717 7.55833 10.0275 7.25L12.9508 7.25333C12.9525 7.2675 12.9342 10.6658 12.9592 11.4892C12.9592 12.6583 13.8875 13.3283 15.3367 11.8617C16.8658 10.1358 17.9233 7.55583 17.9658 7.45083C18.0283 7.30083 18.0825 7.25 18.2792 7.25H20.33H20.3383C20.3375 7.2525 20.3375 7.255 20.3367 7.2575C20.1492 8.1325 18.2983 10.9208 17.6792 11.7867C17.6692 11.8 17.66 11.8142 17.6508 11.8283C17.3783 12.2733 17.1567 12.765 17.6883 13.4567H17.6892C17.7375 13.515 17.8633 13.6517 18.0467 13.8417C18.6167 14.43 20.5717 16.4417 20.745 17.2417C20.63 17.26 20.505 17.2467 18.5675 17.2508C18.155 17.2508 17.8325 16.6342 16.6017 15.3925C15.495 14.3158 14.7767 13.8758 14.1225 13.8758C12.8525 13.8758 12.945 14.9067 12.9567 16.1533C12.9608 17.505 12.9525 17.0775 12.9617 17.1625C12.8875 17.1917 12.675 17.25 12.1208 17.25C6.83333 17.25 3.39 8.8575 3.2575 7.25333C3.30333 7.24917 3.93417 7.25167 5.37917 7.25083V7.25083Z" fill="white"/>
</svg>
