<svg width="20" height="19" viewBox="0 0 20 19" fill="none" xmlns="http://www.w3.org/2000/svg">
<path d="M0.345701 9.33024L5.23653 11.7677C5.4257 11.8611 5.64903 11.8544 5.82987 11.7486L10.1832 9.21774L7.5482 11.5527C7.41403 11.6719 7.33737 11.8419 7.33737 12.0211V17.7086C7.33737 18.3086 8.1032 18.5611 8.46237 18.0844L10.5765 15.2736L15.8049 18.2511C16.1715 18.4619 16.6415 18.2502 16.7265 17.8311L19.9874 1.58107C20.0849 1.09274 19.599 0.694406 19.1474 0.876073L0.397367 8.18857C-0.105966 8.38524 -0.138466 9.08941 0.345701 9.33024V9.33024ZM18.5374 2.45607L15.6715 16.7369L10.7174 13.9152C10.4474 13.7611 10.0999 13.8294 9.9082 14.0827L8.58737 15.8386V12.3019L15.7132 5.98857C16.2774 5.48941 15.629 4.60191 14.9849 4.98024L5.4932 10.4986L2.16653 8.84107L18.5374 2.45607Z" fill="white"/>
</svg>
